<?xml version="1.0" standalone="no"?>
<!DOCTYPE svg PUBLIC "-//W3C//DTD SVG 20010904//EN"
 "http://www.w3.org/TR/2001/REC-SVG-20010904/DTD/svg10.dtd">
<svg version="1.0" xmlns="http://www.w3.org/2000/svg"
 width="100.000000pt" height="100.000000pt" viewBox="0 0 100.000000 100.000000"
 preserveAspectRatio="xMidYMid meet">

<g transform="translate(0.000000,100.000000) scale(0.100000,-0.100000)"
fill="currentColor" stroke="none">
<path d="M393 956 c-237 -58 -395 -293 -355 -528 35 -204 186 -355 390 -390
306 -52 586 228 534 534 -47 271 -308 447 -569 384z m304 -147 c53 -33 120
-116 144 -177 29 -79 29 -186 -2 -267 -27 -71 -109 -159 -180 -192 -107 -50
-225 -48 -329 5 -77 39 -73 55 15 63 165 15 294 136 324 305 14 76 2 148 -39
228 -16 32 -27 62 -25 67 7 10 47 -4 92 -32z m-261 -80 c-1 -34 4 -45 27 -63
38 -31 35 -46 -8 -39 -30 5 -39 1 -64 -26 -16 -17 -32 -31 -35 -31 -3 0 -6 16
-6 36 0 26 -8 43 -30 66 -35 35 -33 46 9 40 24 -3 36 2 58 26 39 42 51 39 49
-9z m-123 -269 c9 -11 27 -20 39 -21 l23 0 -22 -16 c-13 -9 -23 -26 -23 -39 0
-29 -10 -30 -33 -4 -9 11 -26 20 -37 20 -26 0 -26 12 0 28 11 7 20 21 20 32 0
25 11 25 33 0z"/>
</g>
</svg>
