<?xml version="1.0" standalone="no"?>
<!DOCTYPE svg PUBLIC "-//W3C//DTD SVG 20010904//EN"
 "http://www.w3.org/TR/2001/REC-SVG-20010904/DTD/svg10.dtd">
<svg version="1.0" xmlns="http://www.w3.org/2000/svg"
 width="100.000000pt" height="100.000000pt" viewBox="0 0 100.000000 100.000000"
 preserveAspectRatio="xMidYMid meet">

<g transform="translate(0.000000,100.000000) scale(0.100000,-0.100000)"
fill="currentColor" stroke="none">
<path d="M497 913 c-8 -10 -27 -44 -41 -76 -22 -50 -32 -61 -70 -77 -57 -26
-98 -18 -141 27 -26 27 -34 31 -39 18 -3 -9 1 -35 10 -58 35 -94 37 -110 21
-149 -21 -50 -70 -80 -124 -76 -24 2 -43 0 -43 -3 0 -13 38 -38 93 -63 50 -22
61 -32 77 -70 26 -56 18 -97 -26 -139 -43 -40 -25 -55 38 -31 95 35 111 37
150 21 50 -21 80 -70 76 -124 -2 -24 0 -43 3 -43 13 0 38 38 63 93 22 50 32
61 70 77 57 26 98 18 142 -28 45 -47 50 -10 11 86 -19 49 -20 56 -7 95 20 56
70 90 128 85 23 -2 42 0 42 3 0 13 -38 38 -93 63 -50 22 -61 32 -77 70 -26 57
-18 98 27 141 27 26 31 34 18 39 -9 3 -35 -1 -58 -10 -94 -35 -110 -37 -149
-21 -50 21 -80 70 -76 125 3 46 -1 51 -25 25z m64 -187 c78 -13 151 -92 168
-180 31 -167 -108 -306 -276 -275 -245 46 -247 411 -2 458 24 5 51 7 59 6 8
-2 31 -6 51 -9z"/>
<path d="M415 686 c-38 -17 -90 -72 -104 -109 -15 -39 -14 -121 2 -160 19 -45
89 -105 132 -113 55 -10 133 1 163 23 14 10 39 36 55 56 32 39 45 106 33 172
-8 43 -68 113 -113 132 -41 17 -129 16 -168 -1z"/>
</g>
</svg>
